<svg width="104" height="32" viewBox="0 0 104 32" fill="none" xmlns="http://www.w3.org/2000/svg">
<path d="M25.5047 30.7253L8.50155 30.7253L-4.45836e-06 16L8.50155 1.27475L25.5047 1.27475L34.0062 16L25.5047 30.7253ZM7.19902 16L11.9926 24.3031L11.9926 7.69691L7.19902 16ZM12.2904 24.4909L21.9057 24.4909L26.7285 16.1374L12.2904 24.4909ZM21.9057 7.50909L12.3252 7.50909L26.7113 15.8326L21.9057 7.50909Z" fill="white"/>
<path d="M89.327 15.2492C89.327 16.0501 89.4605 16.7953 89.7274 17.4849C90.0166 18.1745 90.4059 18.7751 90.8953 19.2868C91.407 19.7762 92.0076 20.1655 92.6972 20.4546C93.3868 20.7216 94.132 20.8551 94.9328 20.8551C96.2008 20.8551 97.2686 20.5325 98.1362 19.8874C99.026 19.22 99.6489 18.2524 100.005 16.9844H103.775C103.575 18.0966 103.219 19.1088 102.708 20.0209C102.196 20.9329 101.551 21.7115 100.772 22.3566C99.9937 23.0017 99.1039 23.5023 98.1028 23.8582C97.1018 24.2141 96.0117 24.3921 94.8327 24.3921C93.5648 24.3921 92.3746 24.1585 91.2624 23.6913C90.1723 23.202 89.2158 22.5457 88.3927 21.7226C87.5696 20.8996 86.9245 19.9319 86.4574 18.8196C85.9902 17.7073 85.7566 16.5172 85.7566 15.2492C85.7566 13.959 85.9902 12.7577 86.4574 11.6455C86.9245 10.5332 87.5696 9.56553 88.3927 8.74245C89.2158 7.91937 90.1723 7.27425 91.2624 6.8071C92.3746 6.3177 93.5648 6.073 94.8327 6.073C96.0117 6.073 97.1018 6.25096 98.1028 6.60689C99.1039 6.96281 99.9937 7.46334 100.772 8.10845C101.551 8.75357 102.196 9.53216 102.708 10.4442C103.219 11.3563 103.575 12.3684 103.775 13.4807H100.005C99.6266 12.1682 99.0038 11.2006 98.1362 10.5777C97.2686 9.93257 96.1786 9.61002 94.8661 9.61002C94.0875 9.61002 93.3534 9.75461 92.6638 10.0438C91.9965 10.333 91.407 10.7334 90.8953 11.2451C90.4059 11.7345 90.0166 12.324 89.7274 13.0136C89.4605 13.6809 89.327 14.4261 89.327 15.2492Z" fill="white"/>
<path d="M67.1245 14.1814C67.1245 11.5787 67.8252 9.57665 69.2266 8.17519C70.6281 6.77373 72.6302 6.073 75.2329 6.073C76.4786 6.073 77.602 6.26208 78.6031 6.64026C79.6041 7.01843 80.4494 7.56344 81.139 8.27529C81.8509 8.9649 82.3959 9.81022 82.7741 10.8113C83.1523 11.8123 83.3413 12.9357 83.3413 14.1814V24.0584H79.8711V14.2815C79.8711 12.7689 79.4595 11.601 78.6364 10.7779C77.8356 9.93257 76.7233 9.50991 75.2996 9.50991C73.7647 9.50991 72.5968 9.91033 71.796 10.7112C70.9951 11.4898 70.5947 12.6799 70.5947 14.2815V24.0584H67.1245V14.1814Z" fill="white"/>
<path d="M51.1021 6.40669V16.2169C51.1021 17.7741 51.4914 18.9531 52.2699 19.7539C53.0708 20.5548 54.2275 20.9552 55.7402 20.9552C56.4521 20.9552 57.0972 20.844 57.6756 20.6215C58.2539 20.3768 58.7433 20.0542 59.1438 19.6538C59.5664 19.2312 59.889 18.7306 60.1114 18.1523C60.3561 17.5739 60.4785 16.9399 60.4785 16.2503V6.40669H63.9154V23.9917C63.9154 25.2819 63.7374 26.4164 63.3815 27.3952C63.0256 28.3963 62.5028 29.2305 61.8132 29.8978C61.1459 30.5874 60.3116 31.1102 59.3106 31.4661C58.3318 31.8221 57.2084 32 55.9404 32C54.7614 32 53.6825 31.8554 52.7037 31.5662C51.7472 31.277 50.9241 30.8655 50.2345 30.3316C49.5671 29.82 49.0444 29.1971 48.6662 28.463C48.3103 27.7289 48.1323 26.9169 48.1323 26.0271V25.1262H51.5025V25.6267C51.5025 26.6722 51.8806 27.4731 52.637 28.0292C53.4156 28.5854 54.5278 28.8634 55.9738 28.8634C57.531 28.8634 58.6544 28.463 59.344 27.6622C60.0558 26.8613 60.4118 25.5933 60.4118 23.8582V21.3556C60.2783 21.8005 60.0447 22.212 59.711 22.5902C59.3773 22.9684 58.9658 23.2909 58.4764 23.5579C58.0093 23.8026 57.4754 24.0028 56.8747 24.1585C56.2964 24.3142 55.6735 24.3921 55.0061 24.3921C53.8494 24.3921 52.815 24.2141 51.9029 23.8582C50.9908 23.48 50.2122 22.9461 49.5671 22.2565C48.9443 21.5447 48.466 20.6882 48.1323 19.6872C47.7986 18.6861 47.6318 17.5516 47.6318 16.2836V6.40669H51.1021Z" fill="white"/>
<path d="M40.9579 0H44.4282V24.0584H40.9579V0Z" fill="white"/>
</svg>
